<svg width="151" height="32" viewBox="0 0 151 32" fill="none" xmlns="http://www.w3.org/2000/svg">
<path d="M17.0743 0V6.64465C21.3711 7.32038 24.7634 11.0369 24.7634 15.5417C24.7634 20.4971 20.6927 24.5514 15.7174 24.5514C10.9682 24.5514 7.1237 20.9475 6.67141 16.3301H0C0.452299 24.6641 7.23678 31.3087 15.7174 31.3087C24.4241 31.3087 31.4348 24.3262 31.4348 15.6544C31.4348 7.433 25.1026 0.788349 17.0743 0Z" fill="#007DFA"/>
<path d="M15.2651 0H0V6.53203H15.2651V0Z" fill="#007DFA"/>
<path d="M11.7598 8.22144H0V14.8661H11.7598V8.22144Z" fill="#007DFA"/>
<path d="M39.5646 7.19058H43.1995L47.0385 16.5567H47.2018L51.0409 7.19058H54.6757V21.1309H51.8168V12.0574H51.7011L48.0935 21.0628H46.1468L42.5392 12.0234H42.4235V21.1309H39.5646V7.19058ZM60.2226 21.3283C59.5555 21.3283 58.9611 21.2125 58.4392 20.9811C57.9174 20.7451 57.5044 20.398 57.2004 19.9397C56.9009 19.4768 56.7511 18.9005 56.7511 18.2108C56.7511 17.6299 56.8578 17.1421 57.0711 16.7473C57.2843 16.3525 57.5748 16.0349 57.9423 15.7943C58.3099 15.5538 58.7274 15.3723 59.1948 15.2498C59.6667 15.1273 60.1613 15.0411 60.6786 14.9911C61.2867 14.9276 61.7768 14.8686 62.1489 14.8142C62.521 14.7552 62.791 14.669 62.9589 14.5555C63.1268 14.4421 63.2108 14.2742 63.2108 14.0518V14.011C63.2108 13.5799 63.0746 13.2463 62.8024 13.0104C62.5346 12.7744 62.1534 12.6564 61.6588 12.6564C61.137 12.6564 60.7218 12.7721 60.4132 13.0036C60.1046 13.2305 59.9004 13.5163 59.8006 13.8612L57.1187 13.6434C57.2548 13.0081 57.5226 12.459 57.9219 11.9962C58.3212 11.5288 58.8363 11.1703 59.467 10.9207C60.1023 10.6666 60.8375 10.5395 61.6724 10.5395C62.2533 10.5395 62.8092 10.6076 63.3401 10.7437C63.8756 10.8799 64.3498 11.0909 64.7627 11.3767C65.1802 11.6626 65.5092 12.0302 65.7497 12.4794C65.9902 12.9242 66.1105 13.4574 66.1105 14.079V21.1309H63.3605V19.681H63.2788C63.1109 20.0077 62.8863 20.2959 62.605 20.5455C62.3236 20.7905 61.9855 20.9834 61.5908 21.1241C61.196 21.2602 60.7399 21.3283 60.2226 21.3283ZM61.053 19.3271C61.4796 19.3271 61.8562 19.2431 62.1829 19.0752C62.5097 18.9028 62.7661 18.6713 62.9521 18.3809C63.1382 18.0905 63.2312 17.7615 63.2312 17.3939V16.2844C63.1404 16.3434 63.0156 16.3979 62.8568 16.4478C62.7025 16.4932 62.5278 16.5363 62.3327 16.5771C62.1376 16.6134 61.9424 16.6475 61.7473 16.6792C61.5522 16.7065 61.3752 16.7314 61.2164 16.7541C60.876 16.804 60.5788 16.8834 60.3247 16.9923C60.0706 17.1012 59.8732 17.2487 59.7325 17.4348C59.5918 17.6163 59.5215 17.8432 59.5215 18.1155C59.5215 18.5103 59.6644 18.812 59.9503 19.0208C60.2407 19.225 60.6083 19.3271 61.053 19.3271ZM71.4515 15.0864V21.1309H68.5518V10.6757H71.3153V12.5203H71.4378C71.6693 11.9122 72.0573 11.4312 72.6018 11.0772C73.1463 10.7188 73.8066 10.5395 74.5826 10.5395C75.3086 10.5395 75.9417 10.6983 76.4817 11.016C77.0217 11.3336 77.4414 11.7874 77.7409 12.3773C78.0404 12.9627 78.1902 13.6616 78.1902 14.4738V21.1309H75.2905V14.9911C75.295 14.3513 75.1317 13.8521 74.8004 13.4937C74.4691 13.1306 74.0131 12.9491 73.4322 12.9491C73.042 12.9491 72.6971 13.0331 72.3976 13.201C72.1026 13.3689 71.8712 13.6139 71.7033 13.9361C71.5399 14.2537 71.456 14.6372 71.4515 15.0864ZM83.6486 21.3283C82.9815 21.3283 82.3871 21.2125 81.8652 20.9811C81.3434 20.7451 80.9304 20.398 80.6264 19.9397C80.3269 19.4768 80.1771 18.9005 80.1771 18.2108C80.1771 17.6299 80.2838 17.1421 80.497 16.7473C80.7103 16.3525 81.0008 16.0349 81.3683 15.7943C81.7359 15.5538 82.1534 15.3723 82.6208 15.2498C83.0927 15.1273 83.5873 15.0411 84.1046 14.9911C84.7127 14.9276 85.2028 14.8686 85.5749 14.8142C85.947 14.7552 86.217 14.669 86.3849 14.5555C86.5528 14.4421 86.6368 14.2742 86.6368 14.0518V14.011C86.6368 13.5799 86.5006 13.2463 86.2284 13.0104C85.9606 12.7744 85.5794 12.6564 85.0848 12.6564C84.563 12.6564 84.1478 12.7721 83.8392 13.0036C83.5306 13.2305 83.3264 13.5163 83.2266 13.8612L80.5447 13.6434C80.6808 13.0081 80.9486 12.459 81.3479 11.9962C81.7472 11.5288 82.2623 11.1703 82.893 10.9207C83.5283 10.6666 84.2635 10.5395 85.0984 10.5395C85.6793 10.5395 86.2352 10.6076 86.7661 10.7437C87.3016 10.8799 87.7758 11.0909 88.1887 11.3767C88.6062 11.6626 88.9352 12.0302 89.1757 12.4794C89.4162 12.9242 89.5364 13.4574 89.5364 14.079V21.1309H86.7865V19.681H86.7048C86.5369 20.0077 86.3123 20.2959 86.031 20.5455C85.7496 20.7905 85.4115 20.9834 85.0167 21.1241C84.622 21.2602 84.1659 21.3283 83.6486 21.3283ZM84.479 19.3271C84.9056 19.3271 85.2822 19.2431 85.6089 19.0752C85.9357 18.9028 86.1921 18.6713 86.3781 18.3809C86.5642 18.0905 86.6572 17.7615 86.6572 17.3939V16.2844C86.5664 16.3434 86.4416 16.3979 86.2828 16.4478C86.1285 16.4932 85.9538 16.5363 85.7587 16.5771C85.5636 16.6134 85.3684 16.6475 85.1733 16.6792C84.9782 16.7065 84.8012 16.7314 84.6424 16.7541C84.302 16.804 84.0048 16.8834 83.7507 16.9923C83.4966 17.1012 83.2992 17.2487 83.1585 17.4348C83.0178 17.6163 82.9475 17.8432 82.9475 18.1155C82.9475 18.5103 83.0904 18.812 83.3763 19.0208C83.6667 19.225 84.0343 19.3271 84.479 19.3271ZM96.6881 25.2694C95.7487 25.2694 94.9433 25.1401 94.2716 24.8814C93.6046 24.6273 93.0737 24.2801 92.6789 23.84C92.2841 23.3998 92.0277 22.9052 91.9097 22.3561L94.5916 21.9953C94.6732 22.2041 94.8026 22.3992 94.9796 22.5807C95.1565 22.7622 95.3902 22.9074 95.6807 23.0163C95.9756 23.1298 96.3341 23.1865 96.7561 23.1865C97.3869 23.1865 97.9065 23.0322 98.3149 22.7236C98.7278 22.4196 98.9343 21.9091 98.9343 21.1921V19.2794H98.8118C98.6847 19.5698 98.4941 19.8444 98.24 20.103C97.9859 20.3617 97.6592 20.5727 97.2598 20.7361C96.8605 20.8994 96.384 20.9811 95.8304 20.9811C95.0454 20.9811 94.3306 20.7996 93.6863 20.4366C93.0464 20.069 92.5359 19.5086 92.1547 18.7553C91.7781 17.9975 91.5898 17.04 91.5898 15.8828C91.5898 14.6985 91.7826 13.7092 92.1684 12.9151C92.5541 12.121 93.0669 11.5265 93.7067 11.1317C94.3511 10.7369 95.0567 10.5395 95.8236 10.5395C96.409 10.5395 96.8991 10.6393 97.2939 10.839C97.6887 11.0341 98.0063 11.2792 98.2468 11.5741C98.4919 11.8646 98.6802 12.1505 98.8118 12.4318H98.9207V10.6757H101.8V21.233C101.8 22.1224 101.582 22.8666 101.146 23.4656C100.711 24.0646 100.107 24.5138 99.3359 24.8133C98.569 25.1174 97.6864 25.2694 96.6881 25.2694ZM96.7493 18.8029C97.2167 18.8029 97.6115 18.6872 97.9337 18.4558C98.2604 18.2198 98.51 17.884 98.6824 17.4484C98.8594 17.0082 98.9479 16.4818 98.9479 15.8692C98.9479 15.2566 98.8617 14.7257 98.6892 14.2764C98.5168 13.8226 98.2672 13.471 97.9405 13.2214C97.6138 12.9718 97.2167 12.847 96.7493 12.847C96.2728 12.847 95.8712 12.9763 95.5445 13.235C95.2178 13.4891 94.9705 13.8431 94.8026 14.2969C94.6347 14.7506 94.5507 15.2748 94.5507 15.8692C94.5507 16.4728 94.6347 16.9946 94.8026 17.4348C94.975 17.8704 95.2223 18.2085 95.5445 18.449C95.8712 18.685 96.2728 18.8029 96.7493 18.8029ZM109.064 21.3351C107.988 21.3351 107.063 21.1172 106.287 20.6816C105.515 20.2414 104.921 19.6198 104.503 18.8166C104.086 18.0088 103.877 17.0536 103.877 15.9509C103.877 14.8754 104.086 13.9316 104.503 13.1193C104.921 12.307 105.508 11.674 106.266 11.2202C107.029 10.7664 107.923 10.5395 108.948 10.5395C109.638 10.5395 110.28 10.6507 110.874 10.873C111.473 11.0909 111.995 11.4199 112.44 11.86C112.889 12.3002 113.239 12.8538 113.488 13.5209C113.738 14.1834 113.863 14.9594 113.863 15.8488V16.6452H105.034V14.8482H111.133C111.133 14.4307 111.042 14.0609 110.861 13.7387C110.679 13.4165 110.427 13.1647 110.105 12.9831C109.788 12.7971 109.418 12.7041 108.996 12.7041C108.556 12.7041 108.165 12.8062 107.825 13.0104C107.489 13.21 107.226 13.48 107.035 13.8204C106.845 14.1562 106.747 14.5306 106.743 14.9435V16.652C106.743 17.1693 106.838 17.6163 107.029 17.9929C107.224 18.3696 107.498 18.66 107.852 18.8642C108.206 19.0684 108.626 19.1705 109.112 19.1705C109.434 19.1705 109.729 19.1251 109.996 19.0344C110.264 18.9436 110.493 18.8075 110.684 18.626C110.874 18.4445 111.02 18.2221 111.12 17.9589L113.801 18.1359C113.665 18.7803 113.386 19.3429 112.964 19.824C112.547 20.3004 112.007 20.6725 111.344 20.9403C110.686 21.2035 109.926 21.3351 109.064 21.3351Z" fill="#030303"/>
<path d="M117.638 22.1309V8.1383H121.241C122.404 8.1383 123.33 8.46416 124.02 9.11587C124.723 9.76757 125.075 10.6429 125.075 11.7419C125.075 12.3936 124.947 12.9686 124.691 13.467C124.449 13.9653 124.103 14.3551 123.656 14.6362C123.209 14.9046 122.672 15.0387 122.046 15.0387V14.8471C122.736 14.8471 123.33 14.9876 123.829 15.2688C124.34 15.5499 124.73 15.9524 124.998 16.4763C125.279 16.9875 125.42 17.5945 125.42 18.2973C125.42 19.0768 125.254 19.754 124.921 20.3291C124.589 20.9041 124.11 21.3514 123.484 21.6708C122.87 21.9775 122.142 22.1309 121.299 22.1309H117.638ZM118.596 21.2491H121.299C122.283 21.2491 123.056 20.9872 123.618 20.4633C124.18 19.9393 124.461 19.2237 124.461 18.3165C124.461 17.4092 124.18 16.6936 123.618 16.1696C123.056 15.6329 122.283 15.3646 121.299 15.3646H118.596V21.2491ZM118.596 14.502H121.241C122.148 14.502 122.851 14.2592 123.35 13.7737C123.861 13.2881 124.116 12.6172 124.116 11.761C124.116 10.9049 123.861 10.234 123.35 9.74841C122.838 9.26282 122.136 9.02003 121.241 9.02003H118.596V14.502ZM132.964 22.3225C131.814 22.3225 130.913 21.9775 130.262 21.2875C129.61 20.5847 129.284 19.6263 129.284 18.4123V11.5885H130.242V18.4123C130.242 19.3707 130.479 20.1182 130.952 20.6549C131.437 21.1916 132.102 21.46 132.945 21.46C133.801 21.46 134.472 21.1916 134.958 20.6549C135.443 20.1182 135.686 19.3707 135.686 18.4123V11.5885H136.645V18.4123C136.645 19.6135 136.312 20.5655 135.648 21.2683C134.996 21.9711 134.102 22.3225 132.964 22.3225ZM142.234 25.5811V24.7185H145.013C145.767 24.7185 146.342 24.5205 146.739 24.1243C147.135 23.741 147.333 23.1723 147.333 22.4184V21.5558V19.3515H146.988L147.467 18.489C147.467 19.3579 147.186 20.0543 146.624 20.5783C146.061 21.1022 145.32 21.3641 144.4 21.3641C143.352 21.3641 142.509 21.0191 141.87 20.3291C141.231 19.6263 140.912 18.6998 140.912 17.5497V15.2304C140.912 14.0803 141.231 13.1539 141.87 12.4511C142.509 11.7483 143.352 11.3968 144.4 11.3968C145.32 11.3968 146.061 11.6588 146.624 12.1827C147.186 12.7066 147.467 13.4031 147.467 14.272L147.084 13.4095H147.333V11.5885H148.291V22.4184C148.291 23.4662 148.01 24.2521 147.448 24.776C146.898 25.3127 146.087 25.5811 145.013 25.5811H142.234ZM144.592 20.5399C145.461 20.5399 146.132 20.278 146.604 19.754C147.09 19.2173 147.333 18.4826 147.333 17.5497V15.2304C147.333 14.2848 147.09 13.55 146.604 13.0261C146.132 12.4894 145.461 12.2211 144.592 12.2211C143.736 12.2211 143.065 12.4894 142.579 13.0261C142.106 13.55 141.87 14.2848 141.87 15.2304V17.5497C141.87 18.4826 142.106 19.2173 142.579 19.754C143.065 20.278 143.736 20.5399 144.592 20.5399Z" fill="#030303"/>
</svg>
