<svg width="20" height="20" viewBox="0 0 20 20" fill="none" xmlns="http://www.w3.org/2000/svg">
<path d="M14.9869 12.0888C15.0056 12.4007 15.3313 12.6111 15.596 12.445C17.2402 11.4134 18.3334 9.5844 18.3334 7.50008C18.3334 4.27842 15.7217 1.66675 12.5001 1.66675C10.4157 1.66675 8.58675 2.75992 7.55514 4.4042C7.38909 4.66887 7.59947 4.99451 7.91135 5.01326C11.6412 5.23749 14.7626 8.36216 14.9869 12.0888Z" fill="#787486"/>
<path d="M13.3334 12.5001C13.3334 15.7217 10.7217 18.3334 7.50008 18.3334C4.27842 18.3334 1.66675 15.7217 1.66675 12.5001C1.66675 9.27842 4.27842 6.66675 7.50008 6.66675C10.7217 6.66675 13.3334 9.27842 13.3334 12.5001Z" fill="#787486"/>
</svg>
