<svg width="25" height="25" viewBox="0 0 25 25" fill="none" xmlns="http://www.w3.org/2000/svg">
<circle cx="3.99988" cy="4" r="4" fill="#F75388"/>
<path fillRule="evenodd" clipRule="evenodd" d="M17.9394 4C19.2804 4 20.5704 4.53 21.5194 5.481C22.4694 6.43 23.0004 7.71 23.0004 9.05V16.95C23.0004 19.74 20.7304 22 17.9394 22H8.06037C5.26937 22 3.00037 19.74 3.00037 16.95V9.05C3.00037 6.26 5.25937 4 8.06037 4H17.9394ZM19.5304 10.54L19.6104 10.46C19.8494 10.17 19.8494 9.75 19.5994 9.46C19.4604 9.311 19.2694 9.22 19.0704 9.2C18.8604 9.189 18.6604 9.26 18.5094 9.4L14.0004 13C13.4204 13.481 12.5894 13.481 12.0004 13L7.50037 9.4C7.18937 9.17 6.75937 9.2 6.50037 9.47C6.23037 9.74 6.20037 10.17 6.42937 10.47L6.56037 10.6L11.1104 14.15C11.6704 14.59 12.3494 14.83 13.0604 14.83C13.7694 14.83 14.4604 14.59 15.0194 14.15L19.5304 10.54Z" fill="#868AA5"/>
</svg>
