<svg width="16" height="16" viewBox="0 0 16 16" fill="none" xmlns="http://www.w3.org/2000/svg">
<path d="M14.5303 6.02985C14.4607 6.09951 14.378 6.15476 14.287 6.19247C14.196 6.23017 14.0985 6.24958 14 6.2496C13.9015 6.24961 13.804 6.23022 13.713 6.19254C13.622 6.15485 13.5393 6.09962 13.4697 6.02998L12.25 4.81049V9.00001C12.25 9.19892 12.171 9.38968 12.0303 9.53034C11.8897 9.67099 11.6989 9.75001 11.5 9.75001C11.3011 9.75001 11.1103 9.67099 10.9697 9.53034C10.829 9.38968 10.75 9.19892 10.75 9.00001V4.81066L9.53033 6.03034C9.38965 6.17083 9.19893 6.24971 9.00011 6.24964C8.80129 6.24957 8.61063 6.17056 8.47004 6.02997C8.32945 5.88938 8.25043 5.69872 8.25037 5.4999C8.2503 5.30107 8.32917 5.11036 8.46967 4.96967L10.9697 2.46967C10.9709 2.46848 10.9722 2.4675 10.9734 2.46633C10.9897 2.45017 11.0067 2.43468 11.0245 2.42008C11.0335 2.41273 11.0429 2.40632 11.0521 2.39945C11.0625 2.39167 11.0727 2.38361 11.0835 2.37638C11.0943 2.36918 11.1054 2.36292 11.1165 2.35634C11.1265 2.35038 11.1362 2.34412 11.1465 2.33863C11.1577 2.33265 11.1692 2.32758 11.1805 2.32219C11.1913 2.31711 11.2019 2.31173 11.213 2.30713C11.2241 2.30255 11.2354 2.29888 11.2466 2.29485C11.2585 2.29059 11.2701 2.28604 11.2823 2.28235C11.2935 2.27896 11.3049 2.27649 11.3162 2.27362C11.3286 2.27051 11.3408 2.26703 11.3535 2.26454C11.3665 2.26195 11.3797 2.26041 11.3929 2.25851C11.4039 2.25693 11.4148 2.25484 11.426 2.25374C11.4506 2.25131 11.4753 2.25 11.5 2.25L11.5006 2.25003C11.5251 2.25005 11.5496 2.25133 11.574 2.25374C11.585 2.25482 11.5956 2.25686 11.6064 2.25843C11.6198 2.26033 11.6333 2.2619 11.6466 2.26454C11.6589 2.26699 11.6708 2.27037 11.6829 2.27341C11.6945 2.27632 11.7063 2.2789 11.7178 2.28238C11.7296 2.28595 11.7409 2.29038 11.7524 2.2945C11.764 2.29863 11.7757 2.30246 11.7871 2.30719C11.7978 2.31162 11.808 2.31681 11.8184 2.3217C11.8302 2.32724 11.8421 2.33251 11.8537 2.33869C11.8635 2.34394 11.8727 2.34992 11.8823 2.35556C11.8938 2.36241 11.9054 2.36894 11.9166 2.37645C11.9269 2.38333 11.9366 2.39102 11.9465 2.39838C11.9562 2.4056 11.9661 2.41237 11.9755 2.42011C11.992 2.43367 12.0077 2.44815 12.023 2.46304C12.0254 2.46533 12.028 2.46727 12.0303 2.46961L14.5302 4.96918C14.5999 5.03882 14.6551 5.12149 14.6928 5.21248C14.7305 5.30348 14.7499 5.401 14.7499 5.4995C14.7499 5.59799 14.7306 5.69552 14.6929 5.78652C14.6552 5.87752 14.5999 5.9602 14.5303 6.02985ZM3 8.75001H7.49994C7.69885 8.75001 7.88962 8.67099 8.03027 8.53034C8.17092 8.38968 8.24994 8.19892 8.24994 8.00001C8.24994 7.80109 8.17092 7.61033 8.03027 7.46968C7.88962 7.32902 7.69885 7.25001 7.49994 7.25001H3C2.80109 7.25001 2.61032 7.32902 2.46967 7.46968C2.32902 7.61033 2.25 7.80109 2.25 8.00001C2.25 8.19892 2.32902 8.38968 2.46967 8.53034C2.61032 8.67099 2.80109 8.75001 3 8.75001ZM3 4.75001H6.49994C6.69885 4.75001 6.88962 4.67099 7.03027 4.53034C7.17092 4.38968 7.24994 4.19892 7.24994 4.00001C7.24994 3.80109 7.17092 3.61033 7.03027 3.46968C6.88962 3.32902 6.69885 3.25001 6.49994 3.25001H3C2.80109 3.25001 2.61032 3.32902 2.46967 3.46968C2.32902 3.61033 2.25 3.80109 2.25 4.00001C2.25 4.19892 2.32902 4.38968 2.46967 4.53034C2.61032 4.67099 2.80109 4.75001 3 4.75001ZM11.4999 11.25H3C2.80109 11.25 2.61032 11.329 2.46967 11.4697C2.32902 11.6103 2.25 11.8011 2.25 12C2.25 12.1989 2.32902 12.3897 2.46967 12.5303C2.61032 12.671 2.80109 12.75 3 12.75H11.4999C11.6988 12.75 11.8896 12.671 12.0303 12.5303C12.1709 12.3897 12.2499 12.1989 12.2499 12C12.2499 11.8011 12.1709 11.6103 12.0303 11.4697C11.8896 11.329 11.6988 11.25 11.4999 11.25Z" fill="#344054"/>
</svg>
