<svg width="5" height="17" viewBox="0 0 5 17" fill="none" xmlns="http://www.w3.org/2000/svg">
<path d="M2.06039 4.12078C3.19361 4.12078 4.12078 3.19361 4.12078 2.06039C4.12078 0.927176 3.19361 0 2.06039 0C0.927176 0 0 0.927176 0 2.06039C0 3.19361 0.927176 4.12078 2.06039 4.12078ZM2.06039 6.18117C0.927176 6.18117 0 7.10835 0 8.24156C0 9.37478 0.927176 10.302 2.06039 10.302C3.19361 10.302 4.12078 9.37478 4.12078 8.24156C4.12078 7.10835 3.19361 6.18117 2.06039 6.18117ZM2.06039 12.3623C0.927176 12.3623 0 13.2895 0 14.4227C0 15.556 0.927176 16.4831 2.06039 16.4831C3.19361 16.4831 4.12078 15.556 4.12078 14.4227C4.12078 13.2895 3.19361 12.3623 2.06039 12.3623Z" fill="#3A3541" fill-opacity="0.54"/>
</svg>
