<svg width="20" height="20" viewBox="0 0 20 20" fill="none" xmlns="http://www.w3.org/2000/svg">
<path d="M7.86992 9.1525C7.79492 9.145 7.70492 9.145 7.62242 9.1525C5.83742 9.0925 4.41992 7.63 4.41992 5.83C4.41992 3.9925 5.90492 2.5 7.74992 2.5C9.58742 2.5 11.0799 3.9925 11.0799 5.83C11.0724 7.63 9.65492 9.0925 7.86992 9.1525Z" stroke="#787486" stroke-width="1.5" stroke-linecap="round" stroke-linejoin="round"/>
<path d="M13.3075 4C14.7625 4 15.9325 5.1775 15.9325 6.625C15.9325 8.0425 14.8075 9.1975 13.405 9.25C13.345 9.2425 13.2775 9.2425 13.21 9.25" stroke="#787486" stroke-width="1.5" stroke-linecap="round" stroke-linejoin="round"/>
<path d="M4.12004 11.92C2.30504 13.135 2.30504 15.115 4.12004 16.3225C6.18254 17.7025 9.56504 17.7025 11.6275 16.3225C13.4425 15.1075 13.4425 13.1275 11.6275 11.92C9.57254 10.5475 6.19004 10.5475 4.12004 11.92Z" stroke="#787486" stroke-width="1.5" stroke-linecap="round" stroke-linejoin="round"/>
<path d="M14.7549 16C15.2949 15.8875 15.8049 15.67 16.2249 15.3475C17.3949 14.47 17.3949 13.0225 16.2249 12.145C15.8124 11.83 15.3099 11.62 14.7774 11.5" stroke="#787486" stroke-width="1.5" stroke-linecap="round" stroke-linejoin="round"/>
</svg>
