<svg width="42" height="42" viewBox="0 0 42 42" fill="none" xmlns="http://www.w3.org/2000/svg">
<g clip-path="url(#clip0_955_2248)">
<path d="M24.6112 10.8468C24.6112 10.3796 25.0731 10 25.6442 10C26.2153 10 26.6772 10.3796 26.6772 10.8468V14.5565C26.6772 15.0238 26.2153 15.4033 25.6442 15.4033C25.0731 15.4033 24.6112 15.0238 24.6112 14.5565V10.8468ZM15.3013 10.8468C15.3013 10.3796 15.7632 10 16.3343 10C16.9054 10 17.3674 10.3796 17.3674 10.8468V14.5565C17.3674 15.0238 16.9054 15.4033 16.3343 15.4033C15.7632 15.4033 15.3013 15.0238 15.3013 14.5565V10.8468ZM17.3387 25.1393C17.1113 24.9209 17.1042 24.5592 17.3226 24.3319C17.541 24.1045 17.9027 24.0973 18.13 24.3158L19.9025 26.0291L23.8449 21.8075C24.0597 21.5765 24.4214 21.564 24.6523 21.7788C24.8833 21.9937 24.8958 22.3553 24.681 22.5863L20.3429 27.2341L20.3358 27.2412C20.1174 27.4686 19.7557 27.4757 19.5283 27.2573L17.3387 25.1393ZM11.1458 18.1139H30.8542V13.8439C30.8542 13.7007 30.7951 13.57 30.7002 13.4733C30.6053 13.3784 30.4746 13.3193 30.3296 13.3193H28.4408C28.1239 13.3193 27.8678 13.0633 27.8678 12.7464C27.8678 12.4295 28.1239 12.1735 28.4408 12.1735H30.3296C30.7897 12.1735 31.2069 12.3615 31.5094 12.6641C31.812 12.9666 32 13.3838 32 13.8439V18.6886V30.3314C32 30.7915 31.812 31.2087 31.5094 31.5112C31.2069 31.8138 30.7897 32.0018 30.3296 32.0018H11.6704C11.2103 32.0018 10.7931 31.8138 10.4906 31.5112C10.188 31.2069 10 30.7897 10 30.3296V18.6886V13.8439C10 13.3838 10.188 12.9666 10.4906 12.6641C10.7931 12.3615 11.2103 12.1735 11.6704 12.1735H13.6882C14.005 12.1735 14.2611 12.4295 14.2611 12.7464C14.2611 13.0633 14.005 13.3193 13.6882 13.3193H11.6704C11.5272 13.3193 11.3965 13.3784 11.2998 13.4733C11.2049 13.5682 11.1458 13.6989 11.1458 13.8439V18.1139ZM30.8542 19.2616H11.1458V30.3296C11.1458 30.4728 11.2049 30.6035 11.2998 30.7002C11.3947 30.7951 11.5254 30.8542 11.6704 30.8542H30.3296C30.4728 30.8542 30.6035 30.7951 30.7002 30.7002C30.7951 30.6053 30.8542 30.4746 30.8542 30.3296V19.2616ZM19.0288 13.3193C18.7119 13.3193 18.4559 13.0633 18.4559 12.7464C18.4559 12.4295 18.7119 12.1735 19.0288 12.1735H22.8763C23.1932 12.1735 23.4492 12.4295 23.4492 12.7464C23.4492 13.0633 23.1932 13.3193 22.8763 13.3193H19.0288Z" fill="#8D98AA"/>
</g>
<rect x="1.985" y="1.985" width="38.3847" height="38.3847" rx="19.1923" stroke="#8D98AA" stroke-width="2.03" stroke-dasharray="4.06 4.06"/>
<defs>
<clipPath id="clip0_955_2248">
<rect width="22" height="22" fill="white" transform="translate(10 10)"/>
</clipPath>
</defs>
</svg>
