<svg width="20" height="18" viewBox="0 0 20 18" fill="none" xmlns="http://www.w3.org/2000/svg">
<path fill-rule="evenodd" clip-rule="evenodd" d="M3.33337 5.66675C2.87314 5.66675 2.50004 6.03984 2.50004 6.50008V14.8334C2.50004 15.2937 2.87314 15.6667 3.33337 15.6667H16.6667C17.1269 15.6667 17.5 15.2937 17.5 14.8334V6.50008C17.5 6.03984 17.1269 5.66675 16.6667 5.66675H3.33337ZM0.833374 6.50008C0.833374 5.11937 1.95266 4.00008 3.33337 4.00008H16.6667C18.0474 4.00008 19.1667 5.11937 19.1667 6.50008V14.8334C19.1667 16.2141 18.0474 17.3334 16.6667 17.3334H3.33337C1.95266 17.3334 0.833374 16.2141 0.833374 14.8334V6.50008Z" fill="#007DFA"/>
<path fill-rule="evenodd" clip-rule="evenodd" d="M6.56561 1.39898C7.03445 0.93014 7.67033 0.666748 8.33337 0.666748H11.6667C12.3297 0.666748 12.9656 0.93014 13.4345 1.39898C13.9033 1.86782 14.1667 2.50371 14.1667 3.16675V16.5001C14.1667 16.9603 13.7936 17.3334 13.3334 17.3334C12.8731 17.3334 12.5 16.9603 12.5 16.5001V3.16675C12.5 2.94573 12.4122 2.73377 12.256 2.57749C12.0997 2.42121 11.8877 2.33341 11.6667 2.33341H8.33337C8.11236 2.33341 7.9004 2.42121 7.74412 2.57749C7.58784 2.73377 7.50004 2.94573 7.50004 3.16675V16.5001C7.50004 16.9603 7.12694 17.3334 6.66671 17.3334C6.20647 17.3334 5.83337 16.9603 5.83337 16.5001V3.16675C5.83337 2.50371 6.09677 1.86782 6.56561 1.39898Z" fill="#007DFA"/>
</svg>
