<svg width="53" height="54" viewBox="0 0 53 54" fill="none" xmlns="http://www.w3.org/2000/svg">
<path fillRule="evenodd" clipRule="evenodd" d="M14.7724 12.1415C15.86 11.4147 17.1387 11.0269 18.4468 11.0269C19.2866 11.0269 19.9674 11.7077 19.9674 12.5475C19.9674 13.3873 19.2866 14.0681 18.4468 14.0681C17.7402 14.0681 17.0495 14.2776 16.462 14.6701C15.8746 15.0627 15.4167 15.6206 15.1463 16.2734C14.8759 16.9262 14.8052 17.6445 14.943 18.3374C15.0808 19.0304 15.4211 19.667 15.9207 20.1666C16.4203 20.6662 17.0568 21.0064 17.7498 21.1443C18.4428 21.2821 19.1611 21.2114 19.8139 20.941C20.4666 20.6706 21.0246 20.2127 21.4171 19.6252C21.8097 19.0377 22.0192 18.347 22.0192 17.6405C22.0192 16.8007 22.7 16.1199 23.5398 16.1199C24.3796 16.1199 25.0604 16.8007 25.0604 17.6405C25.0604 18.9485 24.6725 20.2272 23.9458 21.3148C23.2191 22.4024 22.1862 23.2501 20.9777 23.7507C19.7692 24.2513 18.4394 24.3822 17.1565 24.127C15.8736 23.8719 14.6952 23.242 13.7702 22.317C12.8453 21.3921 12.2154 20.2137 11.9602 18.9307C11.705 17.6478 11.836 16.318 12.3366 15.1096C12.8371 13.9011 13.6848 12.8682 14.7724 12.1415Z" fill="#8D98AA"/>
<path fillRule="evenodd" clipRule="evenodd" d="M51.4862 19.8472C52.3139 19.8472 52.9849 20.5321 52.9849 21.3771V34.1876C52.9849 40.741 51.7173 45.7264 48.4933 49.0359C45.2673 52.3475 40.4054 53.6502 34.017 53.6502H19.0437C12.6573 53.6502 7.79551 52.348 4.56901 49.0368C1.34449 45.7276 0.0758057 40.7422 0.0758057 34.1876V29.0369C0.0758057 28.1919 0.746809 27.507 1.57453 27.507C2.40226 27.507 3.07326 28.1919 3.07326 29.0369V34.1876C3.07326 40.4435 4.30246 44.4244 6.69417 46.879C9.0839 49.3314 12.9567 50.5904 19.0437 50.5904H34.017C40.106 50.5904 43.9787 49.3309 46.3679 46.8783C48.7592 44.4236 49.9874 40.4427 49.9874 34.1876V21.3771C49.9874 20.5321 50.6584 19.8472 51.4862 19.8472Z" fill="#8D98AA"/>
<path fillRule="evenodd" clipRule="evenodd" d="M4.63138 5.25898C7.90079 2.0153 12.8273 0.739258 19.3034 0.739258H29.428C30.2627 0.739258 30.9394 1.41063 30.9394 2.2388C30.9394 3.06698 30.2627 3.73835 29.428 3.73835H19.3034C13.1256 3.73835 9.19408 4.97355 6.76888 7.37965C4.34369 9.78576 3.09869 13.6863 3.09869 19.8155C3.09869 20.6436 2.42199 21.315 1.58725 21.315C0.752501 21.315 0.0758057 20.6436 0.0758057 19.8155C0.0758057 13.3904 1.36197 8.50266 4.63138 5.25898Z" fill="#8D98AA"/>
<path fillRule="evenodd" clipRule="evenodd" d="M33.8789 9.55856C33.8789 8.74687 34.5832 8.08887 35.4521 8.08887H49.9421C50.8109 8.08887 51.5153 8.74687 51.5153 9.55856C51.5153 10.3703 50.8109 11.0283 49.9421 11.0283H35.4521C34.5832 11.0283 33.8789 10.3703 33.8789 9.55856Z" fill="#8D98AA"/>
<path fillRule="evenodd" clipRule="evenodd" d="M42.697 0.739258C43.5087 0.739258 44.1667 1.44359 44.1667 2.31243V16.8024C44.1667 17.6713 43.5087 18.3756 42.697 18.3756C41.8853 18.3756 41.2273 17.6713 41.2273 16.8024V2.31243C41.2273 1.44359 41.8853 0.739258 42.697 0.739258Z" fill="#8D98AA"/>
<path fillRule="evenodd" clipRule="evenodd" d="M41.3002 29.656L30.8987 38.66L30.871 38.6833C29.6065 39.7259 28.0198 40.296 26.3823 40.296C24.7447 40.296 23.1581 39.7259 21.8935 38.6833C21.8799 38.6721 21.8664 38.6606 21.8532 38.6489L21.0503 37.938C20.3779 37.3955 19.552 37.0785 18.6895 37.0324C17.8217 36.986 16.9617 37.2163 16.2326 37.6899L3.89282 46.0419C3.20404 46.5081 2.26855 46.3264 1.80336 45.6362C1.33816 44.9459 1.51942 44.0084 2.2082 43.5422L14.5789 35.1694C15.8448 34.342 17.3406 33.9397 18.8498 34.0204C20.3591 34.101 21.8036 34.6606 22.9745 35.6183C22.9897 35.6307 23.0046 35.6435 23.0194 35.6565L23.8247 36.3695C24.5474 36.9581 25.4505 37.2796 26.3823 37.2796C27.3166 37.2796 28.2221 36.9563 28.9459 36.3646L39.3474 27.3606L39.375 27.3372C40.6396 26.2946 42.2262 25.7246 43.8638 25.7246C45.5013 25.7246 47.088 26.2946 48.3525 27.3372L48.3802 27.3606L52.4637 30.8957C53.0926 31.4403 53.162 32.3926 52.6187 33.0229C52.0753 33.6533 51.125 33.7228 50.496 33.1783L46.4273 29.6559C45.7036 29.0643 44.7981 28.7409 43.8638 28.7409C42.9294 28.7409 42.0239 29.0643 41.3002 29.656Z" fill="#8D98AA"/>
</svg>
