<svg width="20" height="16" viewBox="0 0 20 16" fill="none" xmlns="http://www.w3.org/2000/svg">
<path fillRule="evenodd" clipRule="evenodd" d="M3.33334 0.5C1.95263 0.5 0.833344 1.61929 0.833344 3V13C0.833344 14.3807 1.95263 15.5 3.33334 15.5H16.6667C18.0474 15.5 19.1667 14.3807 19.1667 13V3C19.1667 1.61929 18.0474 0.5 16.6667 0.5H3.33334ZM5.53352 4.0265C5.17995 3.73187 4.65448 3.77964 4.35985 4.1332C4.06521 4.48676 4.11298 5.01224 4.46654 5.30687L8.39957 8.58439C9.32669 9.35699 10.6734 9.35699 11.6005 8.58439L15.5335 5.30687C15.8871 5.01224 15.9349 4.48676 15.6402 4.1332C15.3456 3.77964 14.8201 3.73187 14.4665 4.0265L10.5335 7.30402C10.2245 7.56156 9.77558 7.56156 9.46654 7.30403L5.53352 4.0265Z" fill="#868AA5"/>
</svg>
