<svg width="58" height="59" viewBox="0 0 58 59" fill="none" xmlns="http://www.w3.org/2000/svg">
<rect x="0.124268" y="0.0678711" width="57.0354" height="58.0563" rx="4.22484" fill="#67CFCF"/>
<path d="M36.0687 34.2557C36.0643 34.5941 35.9596 34.9236 35.7679 35.2024C35.5762 35.4813 35.3062 35.6971 34.9918 35.8225C34.6775 35.9479 34.3331 35.9773 34.0021 35.9069C33.6711 35.8366 33.3683 35.6696 33.1322 35.4272C32.8961 35.1848 32.7371 34.8779 32.6754 34.5451C32.6138 34.2124 32.6522 33.8688 32.7857 33.5579C32.9193 33.247 33.1421 32.9826 33.4259 32.7983C33.7097 32.614 34.0418 32.518 34.3802 32.5224C34.834 32.5284 35.2668 32.7143 35.5834 33.0394C35.9001 33.3644 36.0746 33.802 36.0687 34.2557ZM24.115 32.3881C23.7766 32.3836 23.4445 32.4796 23.1607 32.664C22.8769 32.8483 22.6541 33.1126 22.5205 33.4235C22.3869 33.7344 22.3485 34.078 22.4102 34.4107C22.4719 34.7435 22.6308 35.0505 22.867 35.2929C23.1031 35.5353 23.4058 35.7022 23.7368 35.7726C24.0679 35.8429 24.4123 35.8135 24.7266 35.6881C25.0409 35.5627 25.311 35.347 25.5027 35.0681C25.6944 34.7892 25.799 34.4597 25.8035 34.1213C25.8094 33.6676 25.6348 33.2301 25.3182 32.905C25.0015 32.58 24.5687 32.394 24.115 32.3881ZM45.1709 36.086L45.1262 39.5078C45.1182 40.1128 44.8703 40.6899 44.4369 41.1121C44.0035 41.5343 43.4201 41.767 42.8151 41.7591L15.4412 41.4007C14.8362 41.3928 14.2591 41.1449 13.8369 40.7115C13.4147 40.2781 13.182 39.6947 13.1899 39.0897L13.2326 35.8248C13.2597 33.6263 13.7349 31.4564 14.6292 29.4479C15.5234 27.4393 16.8179 25.6342 18.4335 24.1429L14.9016 20.5317C14.7226 20.3077 14.6333 20.0252 14.6511 19.739C14.6689 19.4528 14.7926 19.1835 14.9979 18.9835C15.2033 18.7834 15.4758 18.6669 15.7623 18.6566C16.0488 18.6462 16.3289 18.7429 16.5482 18.9277L20.2204 22.7118C22.9244 20.8495 26.1386 19.87 29.4216 19.9078C32.7046 19.9457 35.8954 20.9991 38.5556 22.9233L42.2968 19.2647C42.5208 19.0857 42.8033 18.9965 43.0895 19.0143C43.3757 19.0321 43.645 19.1557 43.845 19.3611C44.0451 19.5665 44.1616 19.8389 44.1719 20.1254C44.1823 20.412 44.0856 20.6921 43.9008 20.9113L40.3045 24.4007L40.6283 24.7186C42.101 26.2178 43.2611 27.9948 44.0409 29.9462C44.8208 31.8977 45.2049 33.9848 45.1709 36.086ZM42.8898 36.0562C42.9195 34.2544 42.5906 32.4647 41.9222 30.7912C41.2537 29.1178 40.2591 27.594 38.9961 26.3086C38.6518 25.962 38.2896 25.6336 37.911 25.3247C37.9111 25.3209 37.9096 25.3173 37.907 25.3146C37.9043 25.3119 37.9007 25.3103 37.897 25.3103C35.5014 23.3227 32.4945 22.2209 29.382 22.19L29.3392 22.1895C21.811 22.1194 15.6133 28.2555 15.5138 35.8547L15.471 39.1196L42.845 39.4779L42.8898 36.0562Z" fill="black"/>
</svg>
