<svg width="13" height="12" viewBox="0 0 13 12" fill="none" xmlns="http://www.w3.org/2000/svg">
<path d="M12.1875 4.41939C11.939 4.38508 11.7019 4.29795 11.4938 4.16448C11.2857 4.031 11.112 3.85462 10.9856 3.64847C10.8591 3.44232 10.7832 3.21172 10.7635 2.97382C10.7438 2.73593 10.7809 2.49688 10.8719 2.27448C10.9297 2.12908 10.9382 1.97012 10.8962 1.81989C10.8542 1.66966 10.7638 1.53569 10.6377 1.43675C10.0808 0.992257 9.44692 0.643074 8.7643 0.40477C8.60886 0.349886 8.43917 0.343028 8.27939 0.385175C8.11961 0.427321 7.9779 0.516321 7.87444 0.639495C7.71873 0.828754 7.51972 0.981825 7.29251 1.0871C7.06529 1.19237 6.81584 1.24708 6.56307 1.24708C6.3103 1.24708 6.06085 1.19237 5.83364 1.0871C5.60642 0.981825 5.40741 0.828754 5.2517 0.639495C5.14825 0.516321 5.00654 0.427321 4.84676 0.385175C4.68698 0.343028 4.51728 0.349886 4.36184 0.40477C3.73156 0.624781 3.14226 0.939003 2.61618 1.33558C2.48358 1.43536 2.38806 1.57288 2.34362 1.72799C2.29919 1.88311 2.30816 2.04767 2.36924 2.19759C2.46749 2.42587 2.50808 2.67287 2.48776 2.91876C2.46744 3.16465 2.38678 3.4026 2.25224 3.6135C2.1177 3.82441 1.93303 4.00241 1.71304 4.13323C1.49305 4.26404 1.24387 4.34403 0.985486 4.36677C0.817736 4.38382 0.660177 4.45162 0.536005 4.56017C0.411834 4.66873 0.327612 4.81231 0.295738 4.96978C0.216459 5.34279 0.176523 5.72239 0.176523 6.10293C0.17594 6.42152 0.202997 6.73962 0.257419 7.05398C0.284504 7.21649 0.36716 7.366 0.492606 7.47939C0.618052 7.59277 0.779302 7.66372 0.951424 7.68126C1.21548 7.70481 1.46977 7.78815 1.69299 7.92429C1.91621 8.06042 2.10188 8.2454 2.23445 8.46374C2.36703 8.68209 2.44265 8.92743 2.45498 9.17926C2.46732 9.43108 2.41602 9.68205 2.30537 9.91115C2.23296 10.0602 2.215 10.2279 2.25434 10.3878C2.29368 10.5476 2.38807 10.6904 2.52252 10.7934C3.07606 11.2298 3.70385 11.5733 4.37887 11.8092C4.46519 11.8376 4.55576 11.8526 4.64711 11.8537C4.77236 11.8535 4.89571 11.8247 5.00684 11.7697C5.11796 11.7148 5.21361 11.6354 5.28576 11.538C5.43751 11.3279 5.64093 11.1561 5.87837 11.0376C6.1158 10.9192 6.38006 10.8575 6.64823 10.8581C6.90805 10.8585 7.16422 10.9164 7.39632 11.0274C7.62842 11.1385 7.83004 11.2994 7.98514 11.4976C8.08831 11.6294 8.23445 11.7251 8.40079 11.7697C8.56713 11.8144 8.74434 11.8055 8.90481 11.7444C9.52204 11.5083 10.0967 11.182 10.6079 10.7772C10.7363 10.6763 10.8277 10.5393 10.8691 10.3858C10.9104 10.2324 10.8994 10.0704 10.8378 9.92329C10.7377 9.69795 10.694 9.45356 10.7103 9.20943C10.7265 8.9653 10.8023 8.72809 10.9315 8.51655C11.0607 8.30501 11.2399 8.12492 11.455 7.99049C11.67 7.85607 11.9149 7.77098 12.1705 7.74197C12.3362 7.72019 12.4903 7.64883 12.6105 7.53823C12.7306 7.42763 12.8107 7.28354 12.8389 7.12682C12.9073 6.78927 12.9443 6.44665 12.9496 6.10293C12.9497 5.74038 12.9141 5.37862 12.8432 5.02239C12.8144 4.86913 12.7356 4.72838 12.6179 4.62013C12.5002 4.51188 12.3496 4.44164 12.1875 4.41939V4.41939ZM8.69192 6.10293C8.69192 6.50314 8.56707 6.89437 8.33315 7.22713C8.09923 7.55989 7.76674 7.81925 7.37775 7.9724C6.98875 8.12555 6.56071 8.16563 6.14775 8.08755C5.7348 8.00947 5.35547 7.81675 5.05775 7.53376C4.76002 7.25077 4.55727 6.89022 4.47513 6.4977C4.39299 6.10518 4.43514 5.69832 4.59627 5.32858C4.7574 4.95883 5.03026 4.6428 5.38035 4.42046C5.73043 4.19811 6.14203 4.07944 6.56307 4.07944C7.12768 4.07944 7.66916 4.29263 8.0684 4.67211C8.46763 5.05159 8.69192 5.56627 8.69192 6.10293Z" fill="#4B5563"/>
</svg>
